<svg xmlns="http://www.w3.org/2000/svg" xmlns:xlink="http://www.w3.org/1999/xlink" width="200px" height="53px"
    viewBox="0 0 2014 532">
    <defs>
        <filter id="Filter_0">
            <feFlood flood-color="rgb(255, 255, 255)" flood-opacity="1" result="floodOut" />
            <feComposite operator="atop" in="floodOut" in2="SourceGraphic" result="compOut" />
            <feBlend mode="normal" in="compOut" in2="SourceGraphic" />
        </filter>
    </defs>
    <g filter="url(#Filter_0)">
        <path fill-rule="evenodd" fill="rgb(0, 0, 0)"
            d="M1983.633,412.415 C1997.179,412.415 2007.160,410.989 2013.577,407.781 L1980.782,521.138 C1975.435,522.208 1969.375,522.564 1963.315,522.564 C1928.737,522.564 1900.576,517.217 1878.475,506.166 C1855.661,495.116 1838.551,478.718 1826.787,456.617 C1815.024,434.873 1809.321,407.068 1809.321,372.847 L1809.321,250.222 L1734.106,250.222 L1759.771,152.550 L1809.321,152.550 L1809.321,12.101 L1923.034,12.814 L1923.034,152.550 L1998.605,152.550 L1973.296,250.222 L1923.034,250.222 L1923.034,363.936 C1923.034,396.374 1943.353,412.415 1983.633,412.415 ZM1599.715,12.101 L1713.428,11.745 L1713.428,517.217 L1599.715,518.643 L1599.715,12.101 ZM1517.725,527.555 C1505.961,527.555 1494.911,524.703 1485.286,518.999 C1475.305,513.296 1467.462,505.454 1461.759,495.116 C1456.056,484.778 1453.204,473.371 1453.204,461.608 C1453.204,449.844 1456.056,439.507 1462.115,429.882 C1468.175,419.901 1476.018,412.059 1485.999,406.712 C1495.980,401.008 1506.674,398.157 1517.725,398.157 C1528.775,398.157 1539.469,401.008 1549.450,406.712 C1559.075,412.772 1566.917,420.614 1572.977,430.239 C1579.037,439.863 1581.889,450.201 1581.889,461.608 C1581.889,480.501 1575.829,496.185 1563.352,508.662 C1550.876,521.138 1535.548,527.555 1517.725,527.555 ZM1435.374,377.125 C1435.374,400.652 1430.027,422.396 1419.689,442.002 C1409.708,460.895 1395.806,476.936 1377.626,490.482 C1360.515,502.958 1340.553,512.939 1318.095,519.712 C1297.064,526.485 1274.963,529.693 1251.436,529.693 C1220.423,529.693 1190.836,523.633 1162.675,511.513 C1134.514,499.750 1112.057,481.927 1095.303,458.756 C1078.192,435.586 1069.637,408.138 1069.637,377.125 C1069.637,352.885 1076.054,330.071 1089.243,308.327 C1102.432,286.938 1119.186,269.471 1139.861,255.926 C1101.719,228.478 1082.826,193.187 1082.826,150.055 C1082.826,124.032 1087.104,101.575 1096.016,83.395 C1104.927,64.859 1117.404,49.174 1133.801,36.341 C1150.199,23.865 1168.735,14.953 1189.767,8.893 C1210.799,3.190 1233.256,0.338 1256.783,0.338 C1302.767,0.338 1341.266,13.527 1372.279,39.549 C1403.291,65.928 1418.620,102.644 1418.620,149.342 C1418.620,169.304 1413.629,188.910 1403.648,207.802 C1394.023,226.695 1380.834,240.954 1364.080,251.292 C1388.676,268.046 1406.500,286.225 1418.263,305.118 C1429.670,324.368 1435.374,348.251 1435.374,377.125 ZM1247.871,103.357 C1234.325,103.357 1223.275,107.635 1214.363,116.547 C1205.095,125.458 1200.461,136.152 1200.461,148.629 C1200.461,160.036 1217.928,176.790 1252.862,198.891 C1273.181,188.553 1286.013,178.929 1292.073,170.730 C1298.133,162.531 1301.342,152.906 1301.342,141.856 C1301.342,116.190 1283.518,103.357 1247.871,103.357 ZM1307.045,335.418 C1299.203,324.724 1279.953,312.961 1249.297,299.771 C1224.344,312.604 1207.947,324.011 1199.748,334.349 C1191.549,344.686 1187.272,356.093 1187.272,368.213 C1187.272,384.611 1193.332,398.513 1205.095,409.564 C1216.858,420.971 1231.117,426.674 1247.871,426.674 C1268.546,426.674 1285.300,421.683 1298.490,411.346 C1311.679,401.008 1318.095,386.393 1318.095,366.787 C1318.095,356.093 1314.531,345.756 1307.045,335.418 ZM1095.610,517.930 L953.379,517.930 L819.347,338.983 L819.347,517.930 L705.277,517.930 L705.277,12.458 L819.347,12.101 L819.347,291.573 L820.773,291.573 L938.764,153.263 L1072.440,153.263 L940.546,309.752 L1095.610,517.930 ZM604.748,296.563 C628.631,302.623 648.237,313.674 663.565,329.358 C679.606,345.399 687.448,370.708 687.448,405.642 C687.448,431.665 680.675,453.766 666.773,472.658 C652.871,491.908 634.334,506.166 611.520,515.078 C587.994,524.703 564.110,529.693 539.870,529.693 C519.908,529.693 501.372,527.911 483.905,524.703 C466.794,521.495 451.110,516.148 437.207,509.018 C421.166,501.176 405.482,491.195 390.154,479.431 L447.901,403.147 C470.359,425.605 498.164,437.012 530.602,437.012 C564.467,437.012 581.577,427.030 581.577,407.068 C581.577,396.731 572.309,388.888 553.416,383.898 C536.306,379.977 515.274,374.630 489.965,367.857 C466.081,361.797 446.476,350.390 430.435,333.636 C414.393,317.595 406.551,292.285 406.551,258.064 C406.551,232.042 412.968,209.941 426.157,191.761 C439.346,173.938 456.457,160.749 477.845,151.837 C499.233,142.925 522.760,138.648 548.782,138.648 C562.684,138.648 577.656,140.786 592.984,144.708 C609.738,150.055 623.997,156.115 636.473,163.244 C650.375,171.086 662.495,179.998 673.546,189.623 L610.808,252.005 C592.628,238.102 572.665,231.329 550.921,231.329 C524.899,231.329 512.066,238.459 512.066,253.074 C512.066,265.907 521.690,275.175 540.940,280.522 C561.258,285.869 582.290,291.216 604.748,296.563 ZM184.422,423.109 C210.444,429.882 234.684,427.030 256.428,414.554 C278.529,402.078 293.145,383.541 300.274,358.945 C300.630,358.589 300.630,358.232 300.630,357.876 L414.344,357.876 C412.918,367.144 410.779,376.056 407.927,384.967 C399.729,410.633 387.609,433.447 370.855,453.053 C354.101,473.371 333.426,490.482 309.542,503.671 C277.816,521.138 243.952,530.406 207.592,531.476 C171.232,532.545 137.011,524.703 104.573,507.949 C72.134,491.551 46.469,467.311 27.576,435.229 C12.960,411.346 4.405,386.393 1.910,360.371 C-0.585,333.992 1.910,308.683 9.752,284.443 C17.238,259.847 29.358,237.389 46.825,217.071 C63.935,196.395 84.254,179.641 107.781,166.452 C131.664,152.906 156.974,144.351 183.709,140.430 C210.087,136.509 236.466,137.578 262.845,143.282 C288.867,149.342 313.107,160.036 335.208,175.007 C356.952,190.335 375.132,209.941 389.748,233.825 L392.599,238.815 L395.095,243.449 L132.377,389.958 C144.854,406.712 161.964,417.762 184.422,423.109 ZM244.665,250.222 C232.901,245.588 220.782,243.449 208.305,243.449 C191.195,243.449 175.510,247.370 160.895,255.569 C147.349,263.055 135.942,274.106 127.030,288.721 C120.970,298.702 116.693,310.109 114.910,322.585 L244.665,250.222 Z" />
    </g>
</svg>